<?xml version="1.0" encoding="UTF-8"?>
<svg id="Layer_1" xmlns="http://www.w3.org/2000/svg" version="1.1" viewBox="0 0 128 128">
  <!-- Generator: Adobe Illustrator 30.2.1, SVG Export Plug-In . SVG Version: 2.1.1 Build 1)  -->
  <defs>
    <style>
      .st0 {
        fill: #fff;
      }

      .st1 {
        fill: #090909;
      }

      .st2 {
        fill: #ededed;
      }

      .st3 {
        opacity: 0;
      }

      .st4 {
        fill: #6852a2;
      }
    </style>
  </defs>
  <g>
    <rect class="st4" x="55.2" y="19.1" width="18.8" height="16.6"/>
    <polygon class="st2" points="55.2 17.5 55.2 19.5 73.9 19.5 73.9 17.5 55.2 17.5"/>
    <path class="st4" d="M32,28.9s-8.2,14.6-11.7,25.6c.9,2.7,9.1,8.2,17.1,7.6,2.7-7.3,4.9-10.4,4.9-10.4,0,0,.6-19-10.3-22.7Z"/>
    <path class="st4" d="M97,28.9s8.2,14.6,11.7,25.6c-.9,2.7-9.1,8.2-17.1,7.6-2.7-7.3-4.9-10.4-4.9-10.4,0,0-.6-19,10.3-22.7Z"/>
    <g class="st3">
      <path class="st1" d="M87.8,41.4c-1.3,5.3-1.1,10.2-1.1,10.2,0,0,2.2,3.1,4.9,10.4,1.9.1,3.8,0,5.7-.5-4.9-13.2-8.9-19.4-9.5-20.1Z"/>
    </g>
    <g class="st3">
      <path class="st1" d="M41.2,41.4c-.4.5-4.5,6.7-9.5,20.1,1.8.4,3.8.7,5.7.5,2.7-7.3,4.9-10.4,4.9-10.4,0,0,.1-4.9-1.1-10.2Z"/>
    </g>
  </g>
  <path class="st4" d="M84.8,22.7c-6.4-2.4-9.8-5.2-11-5.2,0,0,.4,7.5-9.3,14.7-9.7-7.2-9.3-14.7-9.3-14.7-1.2,0-4.6,2.8-11,5.2-6.4,2.4-10.5,3.9-12.2,6.2,2.2,1.8,9.4,5.8,9.4,24.1v54.2s10,3,23,3,23.2-3,23.2-3v-54.2c0-18.3,7.1-22.3,9.4-24.1-1.6-2.4-5.8-3.9-12.2-6.2Z"/>
  <path class="st0" d="M62.9,34.3l1.6,1.2,1.6-1.2c7.6-6.4,9.4-12.9,9.8-15.9-1.1-.6-1.7-.9-2.1-.9,0,0,.2,7.5-9.3,14.7-9.5-7.2-9.3-14.7-9.3-14.7-.4,0-1,.3-2.2.9.4,2.9,2.3,9.4,9.9,15.9Z"/>
  <g class="st3">
    <path class="st1" d="M77.9,61.3c-.5,14.9-1.3,37.2-1.7,48.2,7-.9,11.3-2.2,11.3-2.2v-54.2c0-6.9,1-11.7,2.4-15.2-5.8,4.4-11.6,11.5-12,23.5Z"/>
    <path class="st1" d="M52.7,109.4c-.4-11-1.1-33.3-1.7-48.1-.4-12-6.2-19.1-12-23.5,1.4,3.5,2.4,8.3,2.4,15.2v54.2s4.5,1.3,11.3,2.2Z"/>
  </g>
</svg>